<svg xmlns="http://www.w3.org/2000/svg" xmlns:xlink="http://www.w3.org/1999/xlink" width="64" height="60" viewBox="0 0 64 60">
  <defs>
    <clipPath id="clip-path">
      <rect id="Rectangle_59" data-name="Rectangle 59" width="39.31" height="39.31" rx="8.253" fill="none"/>
    </clipPath>
    <clipPath id="clip-Icon_64x60">
      <rect width="64" height="60"/>
    </clipPath>
  </defs>
  <g id="Icon_64x60" clip-path="url(#clip-Icon_64x60)">
    <rect width="64" height="60" fill="#fff"/>
    <g id="Group_138" data-name="Group 138" transform="translate(-68.427 -325.493)">
      <rect id="Rectangle_52" data-name="Rectangle 52" width="50" height="50" rx="11.097" transform="translate(75.428 330.493)" fill="none" stroke="#1a1818" stroke-miterlimit="10" stroke-width="0.345"/>
      <rect id="Rectangle_53" data-name="Rectangle 53" width="39.31" height="39.31" rx="8.253" transform="translate(80.772 335.838)" fill="#429ad5"/>
      <path id="Path_115" data-name="Path 115" d="M81.185,358.251,95.713,347.49l5.275,5.8a2.585,2.585,0,0,0,3.355.294l12.5-9.263,3.022,2.7a.53.53,0,0,0,.868-.256l1.5-8.992a.485.485,0,0,0-.581-.518l-10.079,1.334a.445.445,0,0,0-.287.774l2.2,1.96-10.319,7.647-1.429-1.57-3.846-4.227a2.465,2.465,0,0,0-1.608-.771,2.553,2.553,0,0,0-1.745.477L78.158,355Z" fill="#76408b"/>
      <g id="Group_137" data-name="Group 137" transform="translate(80.772 335.838)">
        <g id="Group_136" data-name="Group 136" clip-path="url(#clip-path)">
          <g id="Group_135" data-name="Group 135" transform="translate(9.192 15.321)">
            <rect id="Rectangle_54" data-name="Rectangle 54" width="20.926" height="28.058" rx="1.783" fill="#ffc25c"/>
            <rect id="Rectangle_55" data-name="Rectangle 55" width="12.275" height="1.65" transform="translate(4.325 4.998)" fill="#ef6d65"/>
            <rect id="Rectangle_56" data-name="Rectangle 56" width="12.275" height="1.65" transform="translate(4.325 10.439)" fill="#ef6d65"/>
            <rect id="Rectangle_57" data-name="Rectangle 57" width="12.275" height="1.65" transform="translate(4.325 15.663)" fill="#ef6d65"/>
            <rect id="Rectangle_58" data-name="Rectangle 58" width="12.275" height="1.65" transform="translate(4.325 21.111)" fill="#ef6d65"/>
          </g>
        </g>
      </g>
    </g>
  </g>
</svg>
