<svg xmlns="http://www.w3.org/2000/svg" xmlns:xlink="http://www.w3.org/1999/xlink" width="64" height="54" viewBox="0 0 64 54">
  <defs>
    <clipPath id="clip-path">
      <rect id="Rectangle_16" data-name="Rectangle 16" width="39.31" height="39.31" rx="8.253" fill="none"/>
    </clipPath>
    <linearGradient id="linear-gradient" x1="0.561" y1="-0.065" x2="0.471" y2="0.62" gradientUnits="objectBoundingBox">
      <stop offset="0" stop-color="#fff"/>
      <stop offset="1" stop-color="#cad7ee"/>
    </linearGradient>
    <linearGradient id="linear-gradient-2" x1="414.541" y1="-0.065" x2="414.45" y2="0.62" xlink:href="#linear-gradient"/>
    <clipPath id="clip-Icon_64x54">
      <rect width="64" height="54"/>
    </clipPath>
  </defs>
  <g id="Icon_64x54" clip-path="url(#clip-Icon_64x54)">
    <rect width="64" height="54" fill="#fff"/>
    <g id="Group_94" data-name="Group 94" transform="translate(-324.775 -263.026)">
      <rect id="Rectangle_14" data-name="Rectangle 14" width="50" height="50" rx="11.097" transform="translate(331.775 265.026)" fill="none" stroke="#1a1818" stroke-miterlimit="10" stroke-width="0.345"/>
      <rect id="Rectangle_15" data-name="Rectangle 15" width="39.31" height="39.31" rx="8.253" transform="translate(337.12 270.371)" fill="#58b99d"/>
      <g id="Group_93" data-name="Group 93" transform="translate(337.12 270.371)">
        <g id="Group_92" data-name="Group 92" clip-path="url(#clip-path)">
          <path id="Path_69" data-name="Path 69" d="M355.043,272.063l1.648,3.339,3.685.535-2.666,2.6.629,3.67-3.3-1.733-3.3,1.733.629-3.67-2.666-2.6,3.685-.535Z" transform="translate(-335.388 -270.138)" fill="#fff"/>
          <g id="Group_91" data-name="Group 91" transform="translate(2.283 12.941)">
            <path id="Path_70" data-name="Path 70" d="M356.63,313.756c6.512,0,13.64.032,17.463-4.647-.587-.935-2.506-4.851-3.121-5.657a2.615,2.615,0,0,0-.176-.324c-2.144-3.02-6.095-4.45-9.678-5.109a19.576,19.576,0,0,0-4.052-.363c-.634-.013-.229-.013-.862,0-4.689.008-11.123,1.536-13.541,5.231-.756.926-2.818,5.03-3.535,6.172C342.949,313.767,350.095,313.756,356.63,313.756Z" transform="translate(-339.127 -279.561)" fill="#76408b"/>
            <path id="Path_71" data-name="Path 71" d="M357.72,295.4a11.41,11.41,0,0,1-.207-3.779h-4.949a8.824,8.824,0,0,1-2.139,7.266c2.292,1.721,6.967,1.7,9.226,0A8.213,8.213,0,0,1,357.72,295.4Z" transform="translate(-337.573 -280.39)" fill="#e66914"/>
            <path id="Path_72" data-name="Path 72" d="M355.1,282.707c-8.381-.347-5.2,15.173,0,14.859C360.3,297.944,363.468,282.319,355.1,282.707Z" transform="translate(-337.639 -281.617)" fill="#fa5"/>
            <path id="Path_73" data-name="Path 73" d="M360.79,285.453c-.669-2.313-2.39-3.688-5.6-3.7-4.423-.038-6.062,2.844-5.866,6.444a11.328,11.328,0,0,0,.165,1.547,11.809,11.809,0,0,0,1.181,3.345,21.115,21.115,0,0,0-.007-2.8c-.008-1.945.626-3.777,2.457-4.524a2.44,2.44,0,0,1,.767-.3,8.213,8.213,0,0,1,4.581,0s1.022.737,1.193,3.241a1.1,1.1,0,0,1-.02.309l0,.015c.209,1.289-.1,3.13.069,4.057a17.718,17.718,0,0,0,1.029-2.539,15.76,15.76,0,0,0,.257-1.593A7.25,7.25,0,0,0,360.79,285.453Z" transform="translate(-337.727 -281.748)" fill="#76408b"/>
            <path id="Path_74" data-name="Path 74" d="M358.71,284.524a6.091,6.091,0,0,1-1.819,2.679c-1.242.9-6.741.439-6.741.439C350.418,282.539,355.853,282.579,358.71,284.524Z" transform="translate(-337.611 -281.533)" fill="#76408b"/>
            <path id="Path_75" data-name="Path 75" d="M350.773,297.19l-.73,1,4.155,3.034.942-1.8Z" transform="translate(-337.626 -279.624)" fill="url(#linear-gradient)"/>
            <path id="Path_76" data-name="Path 76" d="M358.891,297.19l.73,1-4.155,3.034-.942-1.8Z" transform="translate(-337.01 -279.624)" fill="url(#linear-gradient-2)"/>
          </g>
          <path id="Path_77" data-name="Path 77" d="M365.516,274.534l.225,3.1,2.681,1.573-2.879,1.172-.667,3.036-2-2.376-3.094.3,1.641-2.64-1.245-2.848,3.018.744Z" transform="translate(-334.004 -269.799)" fill="#fff"/>
          <path id="Path_78" data-name="Path 78" d="M344.328,274.534l-.225,3.1-2.682,1.573,2.879,1.172.667,3.036,2-2.376,3.094.3-1.641-2.64,1.245-2.848-3.018.744Z" transform="translate(-336.528 -269.799)" fill="#fff"/>
        </g>
      </g>
    </g>
  </g>
</svg>
