<svg xmlns="http://www.w3.org/2000/svg" xmlns:xlink="http://www.w3.org/1999/xlink" width="64" height="56" viewBox="0 0 64 56">
  <defs>
    <clipPath id="clip-path">
      <path id="Path_82" data-name="Path 82" d="M336,445.3l4.7,3.434,1.067-2.037-4.943-2.529Z" transform="translate(-335.999 -444.169)" fill="none"/>
    </clipPath>
    <linearGradient id="linear-gradient" x1="-255.903" y1="231.414" x2="-255.885" y2="231.414" gradientUnits="objectBoundingBox">
      <stop offset="0" stop-color="#fff"/>
      <stop offset="1" stop-color="#cad7ee"/>
    </linearGradient>
    <clipPath id="clip-path-2">
      <path id="Path_83" data-name="Path 83" d="M341.769,446.7l1.067,2.037,4.7-3.434-.827-1.132Z" transform="translate(-341.769 -444.169)" fill="none"/>
    </clipPath>
    <linearGradient id="linear-gradient-2" x1="-216.953" y1="270.029" x2="-216.937" y2="270.029" xlink:href="#linear-gradient"/>
    <clipPath id="clip-path-3">
      <rect id="Rectangle_30" data-name="Rectangle 30" width="39.311" height="39.311" rx="11.086" fill="none"/>
    </clipPath>
    <clipPath id="clip-Icon_64x56">
      <rect width="64" height="56"/>
    </clipPath>
  </defs>
  <g id="Icon_64x56" clip-path="url(#clip-Icon_64x56)">
    <rect width="64" height="56" fill="#fff"/>
    <g id="Group_111" data-name="Group 111" transform="translate(-312.11 -411.459)">
      <rect id="Rectangle_23" data-name="Rectangle 23" width="50" height="50" rx="13.857" transform="translate(319.11 414.459)" fill="none" stroke="#1a1818" stroke-miterlimit="10" stroke-width="0.261"/>
      <rect id="Rectangle_24" data-name="Rectangle 24" width="39.311" height="39.311" rx="11.086" transform="translate(324.455 419.804)" fill="#ffc25c"/>
      <g id="Group_100" data-name="Group 100" transform="translate(338.033 447.641)">
        <g id="Group_99" data-name="Group 99" clip-path="url(#clip-path)">
          <rect id="Rectangle_25" data-name="Rectangle 25" width="5.453" height="6.442" transform="translate(-0.74 4.443) rotate(-80.538)" fill="url(#linear-gradient)"/>
        </g>
      </g>
      <g id="Group_102" data-name="Group 102" transform="translate(344.497 447.641)">
        <g id="Group_101" data-name="Group 101" clip-path="url(#clip-path-2)">
          <rect id="Rectangle_26" data-name="Rectangle 26" width="6.442" height="5.453" transform="matrix(0.986, -0.164, 0.164, 0.986, -0.74, 0.123)" fill="url(#linear-gradient-2)"/>
        </g>
      </g>
      <g id="Group_110" data-name="Group 110" transform="translate(324.455 419.804)">
        <g id="Group_109" data-name="Group 109" clip-path="url(#clip-path-3)">
          <g id="Group_104" data-name="Group 104" transform="translate(23.715 7.848)">
            <rect id="Rectangle_27" data-name="Rectangle 27" width="18.303" height="13.299" rx="2.124" fill="#ef6d65"/>
            <g id="Group_103" data-name="Group 103" transform="translate(4.337 1.797)">
              <path id="Path_84" data-name="Path 84" d="M358.819,433.136a4.852,4.852,0,1,1-4.852-4.853,4.852,4.852,0,0,1,4.852,4.853" transform="translate(-349.115 -428.283)" fill="#fff"/>
            </g>
            <path id="Path_85" data-name="Path 85" d="M355.532,433.123l-2.922,1.687a.374.374,0,0,1-.562-.323V431.11a.374.374,0,0,1,.562-.323l2.922,1.687a.375.375,0,0,1,0,.648" transform="translate(-344.375 -426.148)" fill="#ef6d65"/>
          </g>
          <g id="Group_106" data-name="Group 106" transform="translate(-2.831 7.786)">
            <rect id="Rectangle_28" data-name="Rectangle 28" width="18.303" height="13.299" rx="2.124" fill="#419ad5"/>
            <g id="Group_105" data-name="Group 105" transform="translate(4.336 1.797)">
              <path id="Path_86" data-name="Path 86" d="M335.484,433.081a4.853,4.853,0,1,1-4.853-4.853,4.853,4.853,0,0,1,4.853,4.853" transform="translate(-325.778 -428.228)" fill="#fff"/>
            </g>
            <path id="Path_87" data-name="Path 87" d="M332.2,433.068l-2.924,1.687a.373.373,0,0,1-.561-.323v-3.376a.374.374,0,0,1,.561-.323l2.924,1.687a.375.375,0,0,1,0,.648" transform="translate(-321.038 -426.094)" fill="#ef6d65"/>
          </g>
          <g id="Group_108" data-name="Group 108" transform="translate(7.522 17.024)">
            <rect id="Rectangle_29" data-name="Rectangle 29" width="23.883" height="17.354" rx="2.771" fill="#58b99e"/>
            <g id="Group_107" data-name="Group 107" transform="translate(5.61 2.345)">
              <path id="Path_88" data-name="Path 88" d="M348.663,443.163a6.332,6.332,0,1,1-6.333-6.332,6.332,6.332,0,0,1,6.333,6.332" transform="translate(-335.999 -436.831)" fill="#fff"/>
            </g>
            <path id="Path_89" data-name="Path 89" d="M344.374,443.146l-3.814,2.2a.489.489,0,0,1-.733-.423v-4.4a.488.488,0,0,1,.733-.422l3.814,2.2a.49.49,0,0,1,0,.846" transform="translate(-329.863 -434.045)" fill="#ef6d65"/>
          </g>
        </g>
      </g>
    </g>
  </g>
</svg>
